<?xml version="1.0" standalone="no"?>
<!DOCTYPE svg PUBLIC "-//W3C//DTD SVG 20010904//EN"
 "http://www.w3.org/TR/2001/REC-SVG-20010904/DTD/svg10.dtd">
<svg version="1.0" xmlns="http://www.w3.org/2000/svg"
 width="760.000000pt" height="764.000000pt" viewBox="0 0 760.000000 764.000000"
 preserveAspectRatio="xMidYMid meet">

<g transform="translate(0.000000,764.000000) scale(0.100000,-0.100000)"
fill="#000000" stroke="none">
<path d="M3715 6613 c-284 -10 -572 -83 -840 -213 -429 -210 -764 -542 -971
-965 -147 -302 -214 -591 -214 -927 0 -246 30 -435 105 -666 105 -320 285
-604 537 -847 275 -267 597 -446 958 -533 201 -49 268 -56 505 -56 237 0 304
7 505 56 505 122 959 442 1253 884 315 474 421 1057 297 1628 -49 223 -166
497 -296 691 -416 621 -1097 972 -1839 948z m375 -1283 c191 -42 320 -169 340
-332 24 -206 -74 -396 -273 -526 -42 -27 -96 -58 -121 -68 -25 -11 -46 -22
-46 -26 0 -7 149 -332 296 -647 24 -51 44 -95 44 -97 0 -3 -48 -3 -107 -2
l-107 3 -40 90 c-23 50 -58 129 -79 175 -21 47 -75 168 -121 270 l-83 185
-136 3 c-75 1 -137 -1 -138 -5 0 -4 -33 -168 -72 -363 l-72 -355 -97 -3 c-109
-3 -106 -6 -88 71 5 23 80 398 165 832 86 435 158 796 161 804 4 11 47 13 262
8 143 -3 281 -10 312 -17z"/>
<path d="M3671 5118 c-6 -29 -35 -173 -65 -320 l-53 -268 151 0 c165 0 223 11
304 55 152 83 242 267 202 415 -17 65 -78 120 -163 148 -57 19 -90 22 -217 22
l-149 0 -10 -52z"/>
<path d="M3972 1660 c-51 -23 -77 -73 -68 -128 7 -47 39 -78 105 -103 88 -32
101 -44 101 -89 0 -77 -93 -105 -168 -51 -26 18 -31 19 -42 6 -45 -54 110
-110 190 -68 67 35 97 114 68 178 -7 16 -32 34 -67 51 -127 58 -126 57 -129
92 -7 68 59 99 131 63 39 -20 43 -20 54 -4 17 22 -7 49 -56 63 -51 14 -70 12
-119 -10z"/>
<path d="M1450 1445 l0 -225 30 0 30 0 0 91 0 90 37 -3 c33 -3 42 -11 98 -88
52 -72 66 -85 93 -88 18 -2 32 -1 32 2 0 4 -31 49 -69 100 -65 88 -68 94 -48
100 13 3 36 19 52 36 26 27 30 39 30 85 0 93 -50 125 -195 125 l-90 0 0 -225z
m172 175 c43 -12 58 -34 58 -83 0 -52 -36 -80 -110 -85 l-60 -4 0 91 0 91 38
0 c20 0 54 -5 74 -10z"/>
<path d="M2006 1453 c-47 -120 -86 -222 -86 -226 0 -5 12 -7 27 -5 22 2 31 12
49 58 l22 55 103 0 103 0 21 -55 c19 -49 24 -55 52 -58 l32 -3 -61 153 c-33
84 -72 185 -87 223 -25 64 -29 70 -58 73 l-31 3 -86 -218z m194 -60 c0 -15
-145 -19 -154 -5 -4 7 56 180 71 206 6 9 82 -177 83 -201z"/>
<path d="M2520 1446 l0 -226 25 0 c25 0 25 1 25 79 l0 78 64 6 c36 3 80 13
100 21 92 38 104 185 19 242 -21 14 -52 19 -130 22 l-103 4 0 -226z m206 153
c19 -17 24 -33 24 -69 0 -67 -30 -93 -115 -98 l-65 -4 0 94 c0 52 3 98 8 102
4 5 33 6 65 3 42 -4 66 -12 83 -28z"/>
<path d="M3020 1445 l0 -225 30 0 30 0 0 225 0 225 -30 0 -30 0 0 -225z"/>
<path d="M3320 1444 l0 -226 123 4 c116 3 126 5 166 31 106 70 123 254 33 351
-48 51 -95 66 -214 66 l-108 0 0 -226z m219 172 c19 -7 49 -29 65 -50 26 -32
31 -47 34 -106 8 -137 -52 -199 -190 -200 l-68 0 0 185 0 185 63 -1 c34 0 78
-6 96 -13z"/>
<path d="M4380 1503 c0 -155 2 -171 23 -208 63 -113 243 -110 304 5 21 40 23
55 23 207 l0 163 -30 0 -30 0 0 -160 c0 -180 -7 -208 -62 -236 -42 -22 -103
-13 -135 19 -34 33 -42 81 -43 240 l0 137 -25 0 -25 0 0 -167z"/>
<path d="M4970 1445 l0 -225 25 0 25 0 2 175 3 176 64 -118 c77 -142 98 -173
116 -173 8 0 49 64 92 143 l78 142 3 -172 2 -173 25 0 25 0 0 225 0 225 -28 0
c-30 0 -40 -17 -175 -272 l-25 -47 -88 159 c-81 149 -89 160 -116 160 l-28 0
0 -225z"/>
<path d="M5670 1445 l0 -225 30 0 31 0 -3 174 c-2 96 0 172 3 170 4 -2 41 -67
84 -144 56 -104 81 -140 93 -138 10 2 44 52 79 113 34 61 71 126 82 145 l20
35 1 -177 0 -178 25 0 25 0 0 226 0 225 -32 -3 c-29 -3 -36 -12 -116 -161
l-85 -158 -74 138 c-100 185 -98 183 -133 183 l-30 0 0 -225z"/>
</g>
</svg>
